<svg t="1699611158394" class="icon" viewBox="0 0 1024 1024" version="1.1" xmlns="http://www.w3.org/2000/svg" p-id="7572" width="200" height="200"><path d="M682.04 404.68s1.62-19.8-8.46-40.27c-8.19-16.63-28.81-28.28-45.43-29.3-14.92-0.92-24.74 7.62-39.48 14.27 0 0-118.31-43.02-201.47 63.02-82.23 104.85-136.48 213.92-52.74 350.43 0 0-4.5 14.33 7.27 31.55 7.4 10.83 28 31.68 48.73 31.81 8.52 0.05 15.01-5.01 25.75-6.47 0 0 168.48 42.08 257.31-109.11s83.14-236.23 8.52-305.93z" fill="#FFEE48" p-id="7573"></path><path d="M703.52 268.24c-5.01-4.03-9.77-8.35-14.18-13.04-2.2-2.34-4.3-4.78-6.35-7.25-3.33-3.99 1.77 2.54-1.3-1.65-0.95-1.3-1.89-2.6-2.8-3.92a134.76 134.76 0 0 1-9.76-16.61c-0.71-1.44-1.37-2.9-2.06-4.35-1.31-2.74 0.17 0.56-0.5-1.13-1.29-3.24-2.46-6.51-3.52-9.83-2.7-8.41-11.86-14.7-20.79-11.81-8.42 2.72-14.7 11.78-11.81 20.79 9.07 28.29 25.95 54.03 49.17 72.7 6.88 5.53 17.27 7.22 23.91 0 5.63-6.14 7.35-17.98-0.01-23.9z" fill="#6FB71C" p-id="7574"></path><path d="M663.55 246.91c-27.38 9.43-50.77 27.97-65.24 53.2-4.4 7.67-2.05 18.84 6.06 23.13 8.05 4.25 18.43 2.13 23.13-6.06 1.51-2.63 3.1-5.21 4.83-7.7 0.22-0.31 2.6-3.58 1.37-1.95-1.23 1.63 1.27-1.55 1.52-1.84 3.76-4.45 7.91-8.57 12.38-12.31 0.92-0.77 2.67-2.11 0.75-0.67 1.22-0.91 2.46-1.8 3.71-2.66 2.31-1.58 4.68-3.06 7.11-4.44 2.44-1.38 4.93-2.63 7.46-3.84 4.45-2.13-3.04 1.05 1.58-0.68 1.43-0.54 2.86-1.06 4.31-1.56 8.34-2.87 14.74-11.73 11.81-20.79-2.66-8.29-11.82-14.91-20.78-11.83z" fill="#6FB71C" p-id="7575"></path><path d="M351.24 836.36H351c-29.46-0.18-55.25-26.58-64.77-40.51-10.54-15.43-11.91-29.71-11.33-38.64-19.29-31.76-31.93-64.52-37.61-97.48-5.57-32.33-4.59-65.78 2.9-99.42 12.43-55.81 43.02-114.24 93.52-178.64C382 320.09 441.22 304.1 482.4 301.52c32.43-2.03 58.82 3.74 71.2 7.18 1.51-0.78 3.01-1.58 4.48-2.37 10.54-5.63 22.48-12.01 38.73-11.01 21.49 1.33 49.56 15.52 61.66 40.08 8.07 16.39 10.14 32.18 10.56 41.74 40.09 39.63 59.56 83.55 59.46 134.05-0.11 54.49-23.28 119.13-70.83 197.61-39.92 65.88-101.73 107.63-178.75 120.73-48.98 8.33-89.29 2.61-101.42 0.46-2.35 0.55-4.62 1.36-7.14 2.27-5.07 1.83-11.39 4.1-19.11 4.1z m-40.63-77.97c-0.26 1.57-0.94 8.51 5.08 17.33 6.94 10.15 23.58 24.89 35.52 24.96 1.48-0.01 4.09-0.92 7.07-1.99 4.4-1.58 9.88-3.55 16.9-4.51l3.12-0.43 3.07 0.67c0.38 0.08 41.76 8.66 92.78-0.27 66.85-11.7 118.32-46.63 152.98-103.83 44.09-72.76 65.57-131.38 65.67-179.18 0.08-42.96-17.02-78.98-53.82-113.36l-6.42-6 0.81-8.44c0.06-1.1 0.74-16.6-6.92-32.16-5.55-11.27-20.94-19.55-31.84-20.23-5.88-0.37-10.81 2.1-19.72 6.86-3.67 1.96-7.82 4.18-12.47 6.27l-6.61 2.98-6.82-2.48c-0.23-0.08-28.5-9.98-65.72-7.37-48.7 3.42-89.57 25.78-121.48 66.46-47.14 60.11-75.52 113.88-86.77 164.37-13.63 61.21-2.67 118.67 33.52 175.69l4.88 7.69-2.81 6.97z m-0.11 0.27z" fill="#F9E02B" p-id="7576"></path><path d="M709.8 351.8c31.59 6.12 67.59 45.88 70.38 99.71 1.29 24.86-4.48 51.33-23.57 67.32-12.2-25.54-45.18-29.76-67.79-45.94-19.03-13.63-30.36-35.97-35.36-58.84-7.97-36.48-1.52-75.02-3.6-111.2 0.39 3.17 28.35 42.82 59.94 48.95zM563.87 313.57c-13.69 12.62-44.57 15.77-70.62-1.39-12.03-7.92-22.39-19.69-23.3-34.08 16.09 3.07 29.37-10.86 44.66-15.84 12.88-4.2 27.18-1.81 39.56 3.7 19.74 8.8 35.49 25.02 53.07 36.46-1.6-0.91-29.68-1.47-43.37 11.15z" fill="#92D836" p-id="7577"></path><path d="M694.7 358.69c2.66 0.54 5.27 1.22 7.84 2.09 1.16 0.39 2.29 0.88 3.45 1.27 2.09 0.71-3.01-1.54-1.07-0.45 0.78 0.44 1.67 0.77 2.47 1.16 2.53 1.24 4.98 2.62 7.37 4.11 1.15 0.72 2.29 1.46 3.41 2.23 0.65 0.45 1.29 0.9 1.93 1.36 0.16 0.12 3.15 2.49 1.16 0.84-1.85-1.53 2.1 1.78 2.54 2.16 1.1 0.95 2.18 1.93 3.24 2.92 2.66 2.49 5.19 5.11 7.61 7.83 1.02 1.15 2.02 2.32 3 3.51 0.57 0.69 1.11 1.39 1.68 2.08-2.18-2.69-0.62-0.81-0.19-0.2 2.13 3.01 4.24 6.01 6.18 9.14 1.99 3.23 3.85 6.54 5.57 9.92 0.77 1.51 1.51 3.04 2.22 4.57 0.41 0.89 0.79 1.79 1.2 2.67 1.13 2.45-1.39-3.67 0.29 0.74 2.82 7.4 5.18 14.91 6.85 22.66 0.44 2.06 0.84 4.13 1.19 6.22 0.15 0.89 0.74 5.68 0.43 2.66 0.46 4.53 0.86 9.05 0.98 13.6 0.1 3.82 0.06 7.65-0.15 11.46-0.11 2.04-0.27 4.07-0.48 6.1-0.08 0.76-0.17 1.52-0.26 2.28-0.22 2.03 0.46-2.46-0.15 0.79-0.84 4.47-1.75 8.88-3.08 13.24-0.65 2.15-1.5 4.22-2.19 6.36-0.79 2.46 1.11-2.25-0.01 0.08-0.54 1.11-1.03 2.24-1.59 3.34a74.435 74.435 0 0 1-4.44 7.66c0.04-0.06-2.46 3.58-1.25 1.89 1.18-1.65-0.68 0.82-0.98 1.18-0.8 0.95-1.62 1.87-2.48 2.77-1.73 1.82-3.57 3.52-5.47 5.15l26.55 3.42c-16.76-33.9-56.24-39.5-84.66-59.33-2.68-1.87-0.87-0.64-0.31-0.19-1.01-0.81-2-1.65-2.97-2.51a85.243 85.243 0 0 1-5.05-4.83 91.904 91.904 0 0 1-4.66-5.2c-0.48-0.58-2.51-3.28-0.72-0.85-0.92-1.25-1.83-2.52-2.7-3.82-2.48-3.68-4.72-7.51-6.75-11.45-1.08-2.1-2.05-4.25-3.05-6.38 1.22 2.6 0.07 0.2-0.13-0.32-0.57-1.47-1.15-2.94-1.68-4.42-7.87-21.84-9.23-40.89-9.36-64.1-0.14-26.17 2.01-52.32 0.59-78.48-11.07 1.5-22.14 3-33.2 4.49 0.9 4.71 4.68 9.53 7.47 13.29 5.54 7.48 11.49 14.65 18.05 21.26 15.2 15.34 34.21 29.59 55.76 34.03 8.64 1.78 18.68-2.51 20.79-11.81 1.92-8.45-2.54-18.89-11.81-20.79-2.28-0.47-4.52-1.03-6.74-1.75-1.02-0.33-2.01-0.7-3.02-1.05-4.04-1.39 3.14 1.59-0.73-0.29-3.95-1.92-7.77-3.98-11.45-6.37-2.03-1.32-3.94-2.82-5.96-4.16-1.7-1.13 2.23 1.86-0.22-0.17-1.01-0.83-2.02-1.65-3.02-2.49-3.37-2.87-6.61-5.89-9.73-9.03a172.956 172.956 0 0 1-11.52-12.84c-0.52-0.64-1.41-1.5-1.77-2.23 0.4 0.81 2.39 3.19 0.78 0.98-1.43-1.97-2.88-3.93-4.16-5.99-0.4-0.65-0.75-1.34-1.17-1.98-1.62-2.47 1.2 3.36 1.02 2.43-1.58-8.24-10.85-13.14-18.55-12.11-7.9 1.06-15.11 8.17-14.66 16.6 2.58 47.73-6.35 96.59 7.29 143.32 6.12 20.96 16.61 41.19 32.16 56.73 13.55 13.54 30.37 21.49 47.52 29.36 8.46 3.88 16.95 7.85 24.68 13.06 0.87 0.59 1.72 1.33 2.63 1.85 0.99 0.73 0.7 0.5-0.88-0.71 0.5 0.4 0.99 0.8 1.47 1.21 1.73 1.57 3.46 3.08 5.06 4.79 0.58 0.62 1.11 1.28 1.69 1.89 2.52 2.71-1.33-2.29 0.48 0.63 1.4 2.26 2.77 4.43 3.96 6.82 5.16 10.45 18.88 10 26.55 3.42 30.76-26.38 35.86-70.49 30.31-108.3-4.99-33.99-22.21-68.07-48.49-90.55-12.53-10.72-27.2-19.75-43.55-23.07-8.64-1.75-18.67 2.49-20.79 11.81-1.89 8.42 2.57 18.9 11.83 20.79z" fill="#6FB71C" p-id="7578"></path><path d="M556.58 296.67c-0.52 0.48-1.05 0.94-1.59 1.39 1.88-1.41 2.31-1.74 1.29-0.99-1.12 0.62-2.14 1.48-3.23 2.15-1.99 1.21-4.08 2.22-6.19 3.21 3.98-1.86 0.5-0.27-0.49 0.08-1.39 0.49-2.79 0.92-4.2 1.31-2.76 0.77-5.54 1.2-8.32 1.81 4.13-0.9-0.08-0.01-0.92 0.07-1.39 0.13-2.79 0.22-4.18 0.28a92 92 0 0 1-10.1-0.15c-1.48-0.11-2.96-0.26-4.44-0.42 3.89 0.43-1.07-0.23-1.5-0.31-3.33-0.61-6.62-1.41-9.86-2.38-1.53-0.46-3.06-0.95-4.57-1.48-0.58-0.2-5.59-2.17-2.8-0.99-3.09-1.32-6.09-2.86-9.02-4.51a99.351 99.351 0 0 1-9.04-5.76c-0.62-0.44-1.24-0.89-1.85-1.35 1.41 1.09 1.35 1.03-0.17-0.19-1.15-1.01-2.32-1.97-3.45-3.01-2.24-2.07-4.24-4.32-6.33-6.53-1.23-1.51-1.29-1.54-0.18-0.09-0.45-0.6-0.89-1.2-1.31-1.82-0.99-1.42-1.93-2.88-2.8-4.38-0.74-1.28-1.33-2.64-2.05-3.92 1.68 2.99-0.26-0.72-0.5-1.41-0.47-1.4-0.88-2.82-1.21-4.25-0.23-0.96-0.42-1.93-0.58-2.91 0.25 2.03 0.28 2.04 0.09 0.02l-21.4 16.3c9.85 1.65 19.49 1.38 29.02-1.91 8.55-2.95 16.49-7.25 24.37-11.62 3.59-2 7.19-4 10.89-5.79 0.92-0.44 1.84-0.88 2.77-1.29-1.72 0.7-1.66 0.68 0.16-0.04 2.04-0.71 4.06-1.43 6.16-1.97 0.61-0.16 6.95-1.33 3.97-0.95 2.27-0.29 4.59-0.38 6.87-0.4 2.31-0.01 4.6 0.15 6.91 0.29 2.07 0.23 2.3 0.24 0.68 0.04 1.15 0.18 2.29 0.39 3.43 0.62 4.57 0.92 9.06 2.21 13.44 3.81 1.09 0.4 2.18 0.82 3.26 1.25-1.35-0.56-1.12-0.45 0.68 0.35 2 0.98 4.01 1.93 5.98 2.97 7.88 4.17 15.31 9.13 22.5 14.38 1.81 1.32 3.6 2.65 5.38 4 0.89 0.68 1.78 1.35 2.67 2.03-1.21-0.94-1.02-0.79 0.55 0.43 3.51 2.74 7.02 5.49 10.54 8.22 7.64 5.92 15.31 11.8 23.4 17.11 5.69-9.73 11.38-19.46 17.06-29.19-10.94-4.92-24.43-2.8-35.9-1.11-16.07 2.38-31.66 8.08-43.89 19-6.62 5.91-6.47 17.97 0 23.91 7.06 6.48 16.85 6.3 23.91 0 0.59-0.54 1.19-1.06 1.81-1.57-1.85 1.4-2.02 1.56-0.51 0.49 1.41-0.84 2.75-1.75 4.19-2.54 1.09-0.59 2.21-1.11 3.33-1.66 1.71-0.76 1.52-0.68-0.59 0.24 0.78-0.31 1.56-0.6 2.35-0.88 5.66-2 11.43-2.84 17.23-4.2 1.32-0.2 0.77-0.13-1.66 0.2a116.386 116.386 0 0 1 6.39-0.64c2.14-0.16 4.28-0.26 6.43-0.29 1.64-0.02 3.26 0.04 4.89 0.08 0.62 0.01 1.33 0.22 1.94 0.16-3.12 0.3-4.18-0.72-7.01-1.98 8.05 3.62 18.56 2.59 23.13-6.06 4.47-8.46 1.84-17.93-6.06-23.13-5.72-3.76-11.25-7.78-16.68-11.93-0.66-0.5-1.32-1.01-1.98-1.52 0.29 0.22 1.65 1.28 0.13 0.09l-3.95-3.08c-3.77-2.95-7.55-5.89-11.35-8.81-11.03-8.48-22.38-16.69-34.92-22.81-14.86-7.26-31.05-12.16-47.72-12.05-15.85 0.1-30.06 5.33-43.81 12.81-3.39 1.84-6.73 3.76-10.12 5.59-1.56 0.84-3.13 1.67-4.72 2.47-0.67 0.34-1.35 0.66-2.03 0.99-0.3 0.14-3.15 1.41-1.38 0.66 1.76-0.74-0.5 0.18-0.72 0.25-0.92 0.32-1.83 0.66-2.76 0.95-1.6 0.51-3.3 0.75-4.88 1.27-1.79 0.59 0.62-0.01 0.95-0.04-0.96 0.09-1.91 0.17-2.87 0.2-1.11 0.03-6.33-0.56-2.86 0.02-5.52-0.93-10.2-0.48-14.74 3.03-3.92 3.03-7.08 8.07-6.66 13.27 2.99 37.35 35.16 64.02 69.06 74.69 29.01 9.13 64.73 6.75 88.15-14.26 6.6-5.92 6.48-17.96 0-23.91-7.05-6.49-16.86-6.33-23.91-0.01z" fill="#6FB71C" p-id="7579"></path></svg>